<?xml version="1.0" standalone="no"?><!DOCTYPE svg PUBLIC "-//W3C//DTD SVG 1.1//EN" "http://www.w3.org/Graphics/SVG/1.1/DTD/svg11.dtd"><svg t="1689477526810" class="icon" viewBox="0 0 1024 1024" version="1.1" xmlns="http://www.w3.org/2000/svg" p-id="3640" xmlns:xlink="http://www.w3.org/1999/xlink" width="16" height="16"><path d="M512 512m-448 0a448 448 0 1 0 896 0 448 448 0 1 0-896 0Z" fill="#E6F1FF" p-id="3641"></path><path d="M677.3 680H346.7c-22.1 0-40-17.9-40-40V384c0-22.1 17.9-40 40-40h330.7c22.1 0 40 17.9 40 40v256c-0.1 22.1-18 40-40.1 40z" fill="#71AEFD" p-id="3642"></path><path d="M520.5 497.7c-5.4 0-10.8-1.2-15.8-3.7l-136.2-68.1c-4-2-5.6-6.8-3.6-10.7 2-4 6.8-5.6 10.7-3.6l136.2 68.1c5.8 2.9 12.7 2.7 18.3-0.5L648 411.7c3.9-2.2 8.7-0.9 10.9 3 2.2 3.8 0.9 8.7-3 10.9L538 493c-5.4 3.1-11.5 4.7-17.5 4.7z" fill="#A9D2FF" p-id="3643"></path></svg>