<?xml version="1.0" standalone="no"?><!DOCTYPE svg PUBLIC "-//W3C//DTD SVG 1.1//EN" "http://www.w3.org/Graphics/SVG/1.1/DTD/svg11.dtd"><svg t="1699970998024" class="icon" viewBox="0 0 1024 1024" version="1.1" xmlns="http://www.w3.org/2000/svg" p-id="980" xmlns:xlink="http://www.w3.org/1999/xlink" width="32" height="32"><path d="M146.56 0C101.76 0 66.56 35.2 66.56 80v864C66.56 988.8 101.76 1024 146.56 1024H879.36c44.8 0 80-35.2 80-80V326.4L658.56 0h-512z" fill="#49C9A7" p-id="981"></path><path d="M962.56 326.4v16h-204.8s-99.2-19.2-99.2-108.8c0 0 3.2 92.8 96 92.8H962.56z" fill="#37BB91" p-id="982"></path><path d="M658.56 0v233.6c0 25.6 16 92.8 96 92.8H962.56L658.56 0zM226.56 860.8V524.8h332.8v332.8s-332.8 0-332.8 3.2z m300.8-300.8H261.76v201.6h268.8v-201.6H527.36z m-153.6 134.4l60.8-83.2 19.2 32 19.2-6.4 16 89.6h-204.8l57.6-54.4S373.76 691.2 373.76 694.4zM312.96 633.6c-12.8 0-28.8-9.6-28.8-25.6 0-12.8 12.8-25.6 28.8-25.6 12.8 0 25.6 12.8 25.6 25.6 0 16-9.6 25.6-25.6 25.6z" fill="#FFFFFF" p-id="983"></path></svg>