<?xml version="1.0" standalone="no"?><!DOCTYPE svg PUBLIC "-//W3C//DTD SVG 1.1//EN" "http://www.w3.org/Graphics/SVG/1.1/DTD/svg11.dtd"><svg t="1689477497247" class="icon" viewBox="0 0 1024 1024" version="1.1" xmlns="http://www.w3.org/2000/svg" p-id="3358" width="16" height="16" xmlns:xlink="http://www.w3.org/1999/xlink"><path d="M511.3 506m-448 0a448 448 0 1 0 896 0 448 448 0 1 0-896 0Z" fill="#E6F1FF" p-id="3359"></path><path d="M692.1 492l-72.8-126c-7.1-12.4-20.3-20-34.6-20H439.2c-14.3 0-27.5 7.6-34.6 20l-72.8 126c-7.1 12.4-7.1 27.6 0 39.9l72.8 126c7.1 12.4 20.3 20 34.6 20h145.5c14.3 0 27.5-7.6 34.6-20l72.8-126c7.1-12.3 7.1-27.5 0-39.9z m-179.5 84.7c-35.5 0-64.3-28.8-64.3-64.3s28.8-64.3 64.3-64.3 64.3 28.8 64.3 64.3c-0.1 35.5-28.8 64.3-64.3 64.3z" fill="#71AEFD" p-id="3360"></path><path d="M512 512m-25 0a25 25 0 1 0 50 0 25 25 0 1 0-50 0Z" fill="#A9D2FF" p-id="3361"></path></svg>